<svg xmlns="http://www.w3.org/2000/svg" viewBox="0 0 1000 720" font-family="system-ui, -apple-system, sans-serif">
  <defs>
    <pattern id="dotGrid" width="24" height="24" patternUnits="userSpaceOnUse">
      <circle cx="2" cy="2" r="1" fill="#161b22"/>
    </pattern>
    <linearGradient id="arrowGrad" x1="0" y1="0" x2="0" y2="1">
      <stop offset="0%" stop-color="#58a6ff"/>
      <stop offset="100%" stop-color="#3fb950"/>
    </linearGradient>
    <marker id="arrowHead" markerWidth="10" markerHeight="8" refX="9" refY="4" orient="auto">
      <polygon points="0 0, 10 4, 0 8" fill="#58a6ff"/>
    </marker>
    <filter id="glow">
      <feGaussianBlur stdDeviation="2" result="blur"/>
      <feMerge><feMergeNode in="blur"/><feMergeNode in="SourceGraphic"/></feMerge>
    </filter>
  </defs>

  <!-- Background -->
  <rect width="1000" height="720" fill="#0d1117"/>
  <rect width="1000" height="720" fill="url(#dotGrid)"/>

  <!-- Title -->
  <text x="500" y="36" text-anchor="middle" fill="#f0f6fc" font-size="20" font-weight="700" letter-spacing="1.5">Toboggan Architecture</text>
  <line x1="380" y1="48" x2="620" y2="48" stroke="#21262d" stroke-width="1"/>

  <!-- ───────────── Terminal ───────────── -->
  <rect x="310" y="65" width="380" height="42" rx="8" fill="#161b22" stroke="#30363d" stroke-width="1.5"/>
  <!-- macOS-style window buttons -->
  <circle cx="328" cy="86" r="5" fill="#ff7b72"/>
  <circle cx="344" cy="86" r="5" fill="#d29922"/>
  <circle cx="360" cy="86" r="5" fill="#3fb950"/>
  <text x="378" y="91" fill="#c9d1d9" font-size="13" font-family="'JetBrains Mono', 'SF Mono', ui-monospace, monospace">
    <tspan fill="#ff7b72" font-weight="600">$</tspan> toboggan-server talk.toml
  </text>

  <!-- Arrow 1 -->
  <line x1="500" y1="118" x2="500" y2="155" stroke="url(#arrowGrad)" stroke-width="2" marker-end="url(#arrowHead)" filter="url(#glow)"/>
  <text x="510" y="140" fill="#8b949e" font-size="10">serves</text>

  <!-- ───────────── Server ───────────── -->
  <rect x="175" y="165" width="650" height="130" rx="10" fill="#0d1117" stroke="#1f6feb" stroke-width="2"/>
  <rect x="175" y="165" width="650" height="32" rx="10" fill="#1f6feb"/>
  <rect x="175" y="185" width="650" height="2" fill="#1f6feb"/>
  <text x="500" y="186" text-anchor="middle" fill="#fff" font-size="13" font-weight="600" letter-spacing="1.5">SERVER</text>

  <!-- Server sub-box: Axum -->
  <rect x="192" y="210" width="200" height="65" rx="6" fill="#161b22" stroke="#21262d" stroke-width="1"/>
  <text x="292" y="236" text-anchor="middle" fill="#58a6ff" font-size="13" font-weight="600">Axum HTTP</text>
  <text x="292" y="254" text-anchor="middle" fill="#8b949e" font-size="10">REST endpoints · health</text>

  <!-- Server sub-box: Talk State -->
  <rect x="415" y="210" width="200" height="65" rx="6" fill="#161b22" stroke="#21262d" stroke-width="1"/>
  <text x="515" y="236" text-anchor="middle" fill="#58a6ff" font-size="13" font-weight="600">Talk State</text>
  <text x="515" y="254" text-anchor="middle" fill="#8b949e" font-size="10">Slide index · timer · status</text>

  <!-- Server sub-box: WebSocket -->
  <rect x="638" y="210" width="170" height="65" rx="6" fill="#161b22" stroke="#21262d" stroke-width="1"/>
  <text x="723" y="236" text-anchor="middle" fill="#58a6ff" font-size="13" font-weight="600">WebSocket</text>
  <text x="723" y="254" text-anchor="middle" fill="#8b949e" font-size="10">Real-time broadcast</text>

  <!-- Arrow 2 -->
  <line x1="500" y1="305" x2="500" y2="345" stroke="url(#arrowGrad)" stroke-width="2" marker-end="url(#arrowHead)" filter="url(#glow)"/>

  <!-- ───────────── Protocol ───────────── -->
  <rect x="350" y="355" width="300" height="36" rx="18" fill="#161b22" stroke="#d29922" stroke-width="1.5"/>
  <text x="500" y="378" text-anchor="middle" fill="#d29922" font-size="11" font-weight="600" letter-spacing="1">WEBSOCKET JSON · REST API</text>

  <!-- Arrow 3 -->
  <line x1="500" y1="401" x2="500" y2="445" stroke="url(#arrowGrad)" stroke-width="2" marker-end="url(#arrowHead)" filter="url(#glow)"/>

  <!-- ───────────── Clients ───────────── -->
  <rect x="130" y="455" width="740" height="130" rx="10" fill="#0d1117" stroke="#3fb950" stroke-width="2"/>
  <rect x="130" y="455" width="740" height="32" rx="10" fill="#2ea043"/>
  <rect x="130" y="475" width="740" height="2" fill="#2ea043"/>
  <text x="500" y="476" text-anchor="middle" fill="#fff" font-size="13" font-weight="600" letter-spacing="1.5">CLIENTS</text>

  <!-- Client sub-box: Web -->
  <rect x="150" y="500" width="128" height="65" rx="6" fill="#161b22" stroke="#21262d" stroke-width="1"/>
  <text x="214" y="528" text-anchor="middle" fill="#3fb950" font-size="13" font-weight="600">Web</text>
  <text x="214" y="546" text-anchor="middle" fill="#8b949e" font-size="10">TypeScript · WASM</text>

  <!-- Client sub-box: TUI -->
  <rect x="293" y="500" width="128" height="65" rx="6" fill="#161b22" stroke="#21262d" stroke-width="1"/>
  <text x="357" y="528" text-anchor="middle" fill="#3fb950" font-size="13" font-weight="600">TUI</text>
  <text x="357" y="546" text-anchor="middle" fill="#8b949e" font-size="10">Ratatui</text>

  <!-- Client sub-box: Desktop -->
  <rect x="436" y="500" width="128" height="65" rx="6" fill="#161b22" stroke="#21262d" stroke-width="1"/>
  <text x="500" y="528" text-anchor="middle" fill="#3fb950" font-size="13" font-weight="600">Desktop</text>
  <text x="500" y="546" text-anchor="middle" fill="#8b949e" font-size="10">Iced · wgpu</text>

  <!-- Client sub-box: Mobile -->
  <rect x="579" y="500" width="128" height="65" rx="6" fill="#161b22" stroke="#21262d" stroke-width="1"/>
  <text x="643" y="528" text-anchor="middle" fill="#3fb950" font-size="13" font-weight="600">Mobile</text>
  <text x="643" y="546" text-anchor="middle" fill="#8b949e" font-size="10">iOS · UniFFI</text>

  <!-- Client sub-box: ESP32 -->
  <rect x="722" y="500" width="128" height="65" rx="6" fill="#161b22" stroke="#21262d" stroke-width="1"/>
  <text x="786" y="528" text-anchor="middle" fill="#3fb950" font-size="13" font-weight="600">ESP32</text>
  <text x="786" y="546" text-anchor="middle" fill="#8b949e" font-size="10">Embedded</text>

  <!-- Arrow 4 -->
  <line x1="500" y1="595" x2="500" y2="632" stroke="url(#arrowGrad)" stroke-width="2" marker-end="url(#arrowHead)" filter="url(#glow)"/>

  <!-- ───────────── Output ───────────── -->
  <rect x="350" y="642" width="300" height="42" rx="21" fill="#161b22" stroke="#8b949e" stroke-width="1.5" stroke-dasharray="5 3"/>
  <text x="500" y="667" text-anchor="middle" fill="#8b949e" font-size="12" font-weight="500">Any browser · Projector · Screen</text>

  <!-- ───────────── Key Design Note ───────────── -->
  <rect x="895" y="165" width="90" height="155" rx="8" fill="#161b22" stroke="#21262d" stroke-width="1"/>
  <text x="940" y="183" text-anchor="middle" fill="#f0f6fc" font-size="10" font-weight="700" letter-spacing="1">KEY</text>
  <text x="940" y="196" text-anchor="middle" fill="#8b949e" font-size="8" font-weight="600" letter-spacing="1">DESIGN</text>
  <line x1="903" y1="204" x2="977" y2="204" stroke="#21262d" stroke-width="1"/>
  
  <circle cx="908" cy="222" r="3" fill="#58a6ff"/>
  <text x="916" y="226" fill="#c9d1d9" font-size="10">core is</text>
  <text x="916" y="239" fill="#58a6ff" font-size="10">no_std</text>

  <circle cx="908" cy="262" r="3" fill="#3fb950"/>
  <text x="916" y="266" fill="#c9d1d9" font-size="10">Clients</text>
  <text x="916" y="279" fill="#3fb950" font-size="10">stateless</text>

  <circle cx="908" cy="302" r="3" fill="#d29922"/>
  <text x="916" y="306" fill="#c9d1d9" font-size="10">Single</text>
  <text x="916" y="319" fill="#d29922" font-size="10">binaries</text>
</svg>
